<?xml version="1.0" encoding="UTF-8"?>
<!DOCTYPE svg PUBLIC "-//W3C//DTD SVG 1.1//EN" "http://www.w3.org/Graphics/SVG/1.1/DTD/svg11.dtd">
<svg xmlns="http://www.w3.org/2000/svg" version="1.1" width="500px" height="500px" style="shape-rendering:geometricPrecision; text-rendering:geometricPrecision; image-rendering:optimizeQuality; fill-rule:evenodd; clip-rule:evenodd" xmlns:xlink="http://www.w3.org/1999/xlink">
<g><path style="opacity:1" fill="#000000" d="M -0.5,-0.5 C 166.167,-0.5 332.833,-0.5 499.5,-0.5C 499.5,166.167 499.5,332.833 499.5,499.5C 332.833,499.5 166.167,499.5 -0.5,499.5C -0.5,332.833 -0.5,166.167 -0.5,-0.5 Z"/></g>
<g><path style="opacity:1" fill="#f8f8f8" d="M 133.5,172.5 C 140.784,171.965 147.784,173.132 154.5,176C 155.357,176.689 156.023,177.522 156.5,178.5C 155.157,181.863 153.324,184.863 151,187.5C 147.438,186.09 143.771,185.09 140,184.5C 134.194,184.289 132.36,186.789 134.5,192C 140.04,195.27 145.707,198.27 151.5,201C 160.784,209.927 160.784,218.927 151.5,228C 143.125,231.848 134.458,232.514 125.5,230C 121.618,228.566 118.285,226.4 115.5,223.5C 117.846,220.129 120.179,216.796 122.5,213.5C 126.711,216.607 131.378,218.607 136.5,219.5C 142.545,219.8 144.878,217.134 143.5,211.5C 137.5,207.833 131.5,204.167 125.5,200.5C 117.061,188.035 119.728,178.702 133.5,172.5 Z"/></g>
<g><path style="opacity:1" fill="#fafafa" d="M 178.5,173.5 C 178.5,181.167 178.5,188.833 178.5,196.5C 184.833,196.5 191.167,196.5 197.5,196.5C 197.5,188.833 197.5,181.167 197.5,173.5C 201.833,173.5 206.167,173.5 210.5,173.5C 210.5,192.5 210.5,211.5 210.5,230.5C 206.167,230.5 201.833,230.5 197.5,230.5C 197.5,222.833 197.5,215.167 197.5,207.5C 191.167,207.5 184.833,207.5 178.5,207.5C 178.5,215.167 178.5,222.833 178.5,230.5C 174.167,230.5 169.833,230.5 165.5,230.5C 165.5,211.5 165.5,192.5 165.5,173.5C 169.833,173.5 174.167,173.5 178.5,173.5 Z"/></g>
<g><path style="opacity:1" fill="#f9f9f9" d="M 236.5,173.5 C 240.884,173.174 245.217,173.508 249.5,174.5C 256.049,190.989 262.883,207.323 270,223.5C 271.072,220.782 272.238,218.115 273.5,215.5C 277.514,218.912 281.68,219.245 286,216.5C 287.449,202.239 287.949,187.906 287.5,173.5C 291.833,173.5 296.167,173.5 300.5,173.5C 300.667,189.17 300.5,204.837 300,220.5C 295.466,229.918 287.966,233.418 277.5,231C 275.579,230.64 273.912,229.806 272.5,228.5C 267.739,230.37 262.739,231.037 257.5,230.5C 256.301,226.901 255.301,223.235 254.5,219.5C 246.804,219.169 239.138,219.503 231.5,220.5C 230.091,223.727 229.091,227.06 228.5,230.5C 223.489,230.666 218.489,230.499 213.5,230C 221.463,211.275 229.13,192.442 236.5,173.5 Z"/></g>
<g><path style="opacity:1" fill="#fdfdfd" d="M 309.5,173.5 C 313.833,173.5 318.167,173.5 322.5,173.5C 322.5,192.5 322.5,211.5 322.5,230.5C 318.167,230.5 313.833,230.5 309.5,230.5C 309.5,211.5 309.5,192.5 309.5,173.5 Z"/></g>
<g><path style="opacity:1" fill="#f8f8f8" d="M 346.5,196.5 C 346.44,195.957 346.107,195.624 345.5,195.5C 344.501,207.148 344.168,218.814 344.5,230.5C 340.5,230.5 336.5,230.5 332.5,230.5C 332.5,211.5 332.5,192.5 332.5,173.5C 336.846,173.334 341.179,173.501 345.5,174C 352.667,185.167 359.833,196.333 367,207.5C 367.5,196.172 367.667,184.838 367.5,173.5C 372.167,173.5 376.833,173.5 381.5,173.5C 381.5,192.5 381.5,211.5 381.5,230.5C 376.821,230.666 372.155,230.499 367.5,230C 360.364,218.889 353.364,207.723 346.5,196.5 Z"/></g>
<g><path style="opacity:1" fill="#0d0d0d" d="M 242.5,191.5 C 245.071,196.537 247.071,201.871 248.5,207.5C 244.486,207.666 240.486,207.499 236.5,207C 238.796,201.944 240.796,196.778 242.5,191.5 Z"/></g>
<g><path style="opacity:1" fill="#5f5f5f" d="M 178.5,173.5 C 179.492,180.648 179.825,187.981 179.5,195.5C 185.167,195.5 190.833,195.5 196.5,195.5C 196.175,187.981 196.508,180.648 197.5,173.5C 197.5,181.167 197.5,188.833 197.5,196.5C 191.167,196.5 184.833,196.5 178.5,196.5C 178.5,188.833 178.5,181.167 178.5,173.5 Z"/></g>
<g><path style="opacity:1" fill="#b2b2b2" d="M 346.5,196.5 C 345.833,207.833 345.167,219.167 344.5,230.5C 344.168,218.814 344.501,207.148 345.5,195.5C 346.107,195.624 346.44,195.957 346.5,196.5 Z"/></g>
<g><path style="opacity:1" fill="#4b4b4b" d="M 197.5,230.5 C 196.508,223.352 196.175,216.019 196.5,208.5C 190.833,208.5 185.167,208.5 179.5,208.5C 179.825,216.019 179.492,223.352 178.5,230.5C 178.5,222.833 178.5,215.167 178.5,207.5C 184.833,207.5 191.167,207.5 197.5,207.5C 197.5,215.167 197.5,222.833 197.5,230.5 Z"/></g>
<g><path style="opacity:1" fill="#f8f8f8" d="M 66.5,249.5 C 71.3054,248.513 76.3054,248.179 81.5,248.5C 84.5056,261.523 87.6723,274.523 91,287.5C 94.3281,274.521 97.4948,261.521 100.5,248.5C 104.226,248.177 107.893,248.511 111.5,249.5C 114.846,261.884 118.346,274.217 122,286.5C 125.157,274.204 128.157,261.87 131,249.5C 135.737,248.531 140.57,248.197 145.5,248.5C 140.282,267.479 135.282,286.479 130.5,305.5C 125.456,305.827 120.456,305.494 115.5,304.5C 112.593,294.368 109.426,284.368 106,274.5C 103.164,284.837 100.331,295.17 97.5,305.5C 92.5,305.5 87.5,305.5 82.5,305.5C 77.2841,286.723 71.9507,268.057 66.5,249.5 Z"/></g>
<g><path style="opacity:1" fill="#fafafa" d="M 183.5,259.5 C 176.833,259.5 170.167,259.5 163.5,259.5C 163.5,263.5 163.5,267.5 163.5,271.5C 169.833,271.5 176.167,271.5 182.5,271.5C 182.5,275.167 182.5,278.833 182.5,282.5C 176.167,282.5 169.833,282.5 163.5,282.5C 163.5,286.167 163.5,289.833 163.5,293.5C 170.167,293.5 176.833,293.5 183.5,293.5C 183.5,297.5 183.5,301.5 183.5,305.5C 172.5,305.5 161.5,305.5 150.5,305.5C 150.5,286.5 150.5,267.5 150.5,248.5C 161.5,248.5 172.5,248.5 183.5,248.5C 183.5,252.167 183.5,255.833 183.5,259.5 Z"/></g>
<g><path style="opacity:1" fill="#f8f8f8" d="M 208.5,248.5 C 212.884,248.174 217.217,248.508 221.5,249.5C 229.073,268.057 236.74,286.557 244.5,305C 239.511,305.499 234.511,305.666 229.5,305.5C 228.909,302.06 227.909,298.727 226.5,295.5C 218.862,294.503 211.196,294.169 203.5,294.5C 202.699,298.235 201.699,301.901 200.5,305.5C 195.833,305.5 191.167,305.5 186.5,305.5C 193.549,286.4 200.883,267.4 208.5,248.5 Z"/></g>
<g><path style="opacity:1" fill="#fefefe" d="M 284.5,259.5 C 279.833,259.5 275.167,259.5 270.5,259.5C 270.5,274.833 270.5,290.167 270.5,305.5C 266.5,305.5 262.5,305.5 258.5,305.5C 258.5,290.167 258.5,274.833 258.5,259.5C 253.833,259.5 249.167,259.5 244.5,259.5C 244.5,255.833 244.5,252.167 244.5,248.5C 257.833,248.5 271.167,248.5 284.5,248.5C 284.5,252.167 284.5,255.833 284.5,259.5 Z"/></g>
<g><path style="opacity:1" fill="#fcfcfc" d="M 290.5,248.5 C 294.833,248.5 299.167,248.5 303.5,248.5C 303.5,256.167 303.5,263.833 303.5,271.5C 309.5,271.5 315.5,271.5 321.5,271.5C 321.5,263.833 321.5,256.167 321.5,248.5C 325.833,248.5 330.167,248.5 334.5,248.5C 334.5,267.5 334.5,286.5 334.5,305.5C 330.167,305.5 325.833,305.5 321.5,305.5C 321.5,297.833 321.5,290.167 321.5,282.5C 315.5,282.5 309.5,282.5 303.5,282.5C 303.5,290.167 303.5,297.833 303.5,305.5C 299.167,305.5 294.833,305.5 290.5,305.5C 290.5,286.5 290.5,267.5 290.5,248.5 Z"/></g>
<g><path style="opacity:1" fill="#fefefe" d="M 376.5,248.5 C 376.5,252.167 376.5,255.833 376.5,259.5C 369.978,259.177 363.645,259.51 357.5,260.5C 357.5,264.167 357.5,267.833 357.5,271.5C 363.833,271.5 370.167,271.5 376.5,271.5C 376.5,275.167 376.5,278.833 376.5,282.5C 370.167,282.5 363.833,282.5 357.5,282.5C 357.5,286.167 357.5,289.833 357.5,293.5C 363.645,294.49 369.978,294.823 376.5,294.5C 376.5,298.167 376.5,301.833 376.5,305.5C 365.833,305.5 355.167,305.5 344.5,305.5C 344.5,286.5 344.5,267.5 344.5,248.5C 355.167,248.5 365.833,248.5 376.5,248.5 Z"/></g>
<g><path style="opacity:1" fill="#f7f7f7" d="M 385.5,248.5 C 394.506,248.334 403.506,248.5 412.5,249C 424.43,253.764 427.93,262.264 423,274.5C 420.509,277.832 417.342,280.332 413.5,282C 419.833,289.667 426.167,297.333 432.5,305C 426.804,305.83 421.137,305.663 415.5,304.5C 410.525,297.69 405.358,291.024 400,284.5C 399.5,291.492 399.334,298.492 399.5,305.5C 394.833,305.5 390.167,305.5 385.5,305.5C 385.5,286.5 385.5,267.5 385.5,248.5 Z"/></g>
<g><path style="opacity:1" fill="#737373" d="M 376.5,248.5 C 377.483,252.298 377.817,256.298 377.5,260.5C 370.833,260.5 364.167,260.5 357.5,260.5C 363.645,259.51 369.978,259.177 376.5,259.5C 376.5,255.833 376.5,252.167 376.5,248.5 Z"/></g>
<g><path style="opacity:1" fill="#777777" d="M 404.5,259.5 C 402.833,259.5 401.167,259.5 399.5,259.5C 399.5,264.167 399.5,268.833 399.5,273.5C 398.513,268.695 398.179,263.695 398.5,258.5C 400.735,258.205 402.735,258.539 404.5,259.5 Z"/></g>
<g><path style="opacity:1" fill="#080808" d="M 404.5,259.5 C 409.604,260.373 411.77,263.373 411,268.5C 408.468,272.907 404.635,274.574 399.5,273.5C 399.5,268.833 399.5,264.167 399.5,259.5C 401.167,259.5 402.833,259.5 404.5,259.5 Z"/></g>
<g><path style="opacity:1" fill="#a2a2a2" d="M 244.5,259.5 C 249.167,259.5 253.833,259.5 258.5,259.5C 258.5,274.833 258.5,290.167 258.5,305.5C 257.504,290.676 257.171,275.676 257.5,260.5C 252.968,260.818 248.634,260.485 244.5,259.5 Z"/></g>
<g><path style="opacity:1" fill="#6c6c6c" d="M 284.5,259.5 C 280.366,260.485 276.032,260.818 271.5,260.5C 271.829,275.676 271.496,290.676 270.5,305.5C 270.5,290.167 270.5,274.833 270.5,259.5C 275.167,259.5 279.833,259.5 284.5,259.5 Z"/></g>
<g><path style="opacity:1" fill="#0d0d0d" d="M 214.5,266.5 C 217.105,271.456 219.438,276.623 221.5,282C 217.514,282.499 213.514,282.666 209.5,282.5C 211.159,277.177 212.826,271.844 214.5,266.5 Z"/></g>
<g><path style="opacity:1" fill="#5b5b5b" d="M 183.5,259.5 C 177.355,260.49 171.022,260.823 164.5,260.5C 164.5,263.833 164.5,267.167 164.5,270.5C 170.69,270.177 176.69,270.51 182.5,271.5C 176.167,271.5 169.833,271.5 163.5,271.5C 163.5,267.5 163.5,263.5 163.5,259.5C 170.167,259.5 176.833,259.5 183.5,259.5 Z"/></g>
<g><path style="opacity:1" fill="#7e7e7e" d="M 357.5,293.5 C 364.167,293.5 370.833,293.5 377.5,293.5C 377.817,297.702 377.483,301.702 376.5,305.5C 376.5,301.833 376.5,298.167 376.5,294.5C 369.978,294.823 363.645,294.49 357.5,293.5 Z"/></g>
</svg>
