<?xml version="1.0" standalone="no"?>
<!DOCTYPE svg PUBLIC "-//W3C//DTD SVG 20010904//EN"
 "http://www.w3.org/TR/2001/REC-SVG-20010904/DTD/svg10.dtd">
<svg version="1.0" xmlns="http://www.w3.org/2000/svg"
 width="500.000000pt" height="500.000000pt" viewBox="0 0 500.000000 500.000000"
 preserveAspectRatio="xMidYMid meet">

<g transform="translate(0.000000,500.000000) scale(0.100000,-0.100000)"
fill="#000000" stroke="none">
<path d="M0 2500 l0 -2500 2500 0 2500 0 0 2500 0 2500 -2500 0 -2500 0 0
-2500z m1497 755 c72 -21 79 -33 51 -89 -12 -25 -25 -46 -29 -46 -4 0 -23 7
-42 15 -73 30 -142 12 -135 -36 2 -19 20 -32 86 -65 89 -44 126 -73 148 -116
18 -34 18 -89 0 -131 -48 -113 -231 -143 -374 -60 l-43 24 27 47 c15 26 29 50
33 54 3 4 33 -6 65 -22 62 -32 89 -36 129 -21 27 11 40 35 32 61 -3 10 -40 37
-83 59 -42 22 -84 47 -93 54 -29 22 -59 81 -59 114 0 130 134 204 287 158z
m295 -107 l3 -113 90 0 90 0 3 113 3 112 64 0 65 0 0 -285 0 -285 -65 0 -65 0
0 115 0 116 -92 -3 -93 -3 -3 -112 -3 -113 -64 0 -65 0 0 285 0 285 65 0 64 0
3 -112z m802 -135 c94 -235 116 -284 116 -255 0 7 6 28 14 47 l14 34 36 -19
c42 -21 70 -17 91 13 12 17 15 62 15 224 l0 203 65 0 65 0 0 -227 c0 -208 -2
-230 -21 -269 -35 -74 -139 -105 -227 -69 -24 10 -38 12 -40 5 -2 -5 -33 -10
-72 -10 l-67 0 -19 53 -19 52 -112 3 -112 3 -17 -56 -18 -55 -72 0 -73 0 53
128 c29 70 81 198 115 285 l63 157 62 0 61 0 99 -247z m636 -38 l0 -285 -65 0
-65 0 0 285 0 285 65 0 65 0 0 -285z m336 115 l109 -170 3 170 2 170 70 0 70
0 0 -285 0 -285 -68 0 -69 0 -109 172 -109 171 -3 -171 -2 -172 -65 0 -65 0 0
285 0 285 64 0 64 0 108 -170z m-2701 -777 c27 -109 51 -191 52 -183 2 8 25
96 52 195 l48 180 51 3 c29 2 52 1 52 -1 0 -10 99 -380 103 -383 2 -2 21 69
41 158 21 88 43 176 48 195 l9 33 69 0 c39 0 70 -3 70 -7 0 -5 -34 -133 -77
-286 l-78 -278 -74 3 -74 3 -42 148 c-24 81 -44 150 -46 152 -3 2 -24 -66 -48
-151 l-44 -154 -73 0 c-61 0 -74 3 -78 18 -3 9 -37 130 -76 267 -39 138 -73
258 -76 268 -5 15 3 17 68 17 l74 0 49 -197z m975 142 l0 -54 -97 -3 -98 -3
-3 -57 -3 -58 96 0 95 0 0 -55 0 -55 -95 0 -96 0 3 -57 3 -58 98 -3 97 -3 0
-54 0 -55 -165 0 -165 0 0 285 0 285 165 0 165 0 0 -55z m461 -152 c45 -115
97 -243 115 -285 l33 -78 -72 0 -73 0 -19 55 -18 55 -112 0 -111 0 -18 -55
-17 -55 -71 0 c-63 0 -69 2 -64 18 4 9 55 137 113 285 l107 267 62 0 62 0 83
-207z m549 152 l0 -54 -67 -3 -68 -3 -3 -227 -2 -228 -65 0 -65 0 0 230 0 230
-65 0 -65 0 0 55 0 55 200 0 200 0 0 -55z m190 -60 l0 -115 90 0 90 0 0 115 0
115 65 0 65 0 0 -285 0 -285 -65 0 -65 0 0 115 0 115 -90 0 -90 0 0 -115 0
-115 -65 0 -65 0 0 285 0 285 65 0 65 0 0 -115z m740 60 l0 -55 -100 0 -100 0
0 -60 0 -60 95 0 95 0 0 -55 0 -55 -95 0 -95 0 0 -60 0 -60 100 0 100 0 0 -55
0 -55 -165 0 -165 0 0 285 0 285 165 0 165 0 0 -55z m373 41 c18 -7 46 -28 62
-45 28 -30 30 -37 30 -111 0 -70 -3 -81 -25 -106 -14 -14 -37 -34 -52 -44
l-27 -16 89 -108 c50 -60 93 -112 96 -117 3 -5 -32 -9 -78 -8 l-83 0 -85 111
-85 111 -3 -111 -3 -112 -64 0 -65 0 0 285 0 285 130 0 c89 0 141 -4 163 -14z"/>
<path d="M2403 3004 l-30 -79 54 -3 c31 -2 58 -1 61 2 3 3 -8 40 -25 83 l-30
77 -30 -80z"/>
<path d="M2127 2258 c-15 -40 -27 -76 -27 -80 0 -5 27 -8 60 -8 l59 0 -25 67
c-39 103 -38 102 -67 21z"/>
<path d="M3997 2403 c-4 -3 -7 -37 -7 -75 l0 -68 38 0 c66 0 104 47 82 104
-11 30 -94 59 -113 39z"/>
</g>
</svg>
